<svg width="106" height="107" viewBox="0 0 106 107" fill="none" xmlns="http://www.w3.org/2000/svg">
<g clip-path="url(#clip0_1_555)">
<mask id="mask0_1_555" style="mask-type:luminance" maskUnits="userSpaceOnUse" x="0" y="1" width="106" height="107">
<path d="M106 1H0V107.009H106V1Z" fill="white"/>
</mask>
<g mask="url(#mask0_1_555)">
<path d="M84.7006 44.6641L79.2021 83.6738L72.5912 86.4942L63.2025 90.4969L53.3038 94.7207L54.8936 51.5004L72.9719 47.3528L75.5445 46.763L76.2112 46.611L84.7006 44.6641Z" fill="#FF2D54"/>
<path d="M76.2189 46.6052L72.5942 86.4971L63.1949 90.5009L66.0985 48.9273L72.976 47.3472L75.5515 46.7573L76.2189 46.6052Z" fill="#64D1FF"/>
<path d="M25.7058 42.3952L28.3228 81.7195L34.7076 85.0439L43.7755 89.7622L53.3358 94.7406L54.9256 51.5203L37.2035 45.9845L34.6816 45.1972L34.0279 44.9939L25.7058 42.3952Z" fill="#FB5270"/>
<path d="M34.0243 44.9892L34.704 85.0478L43.7819 89.767L43.9451 48.0874L37.2034 45.9799L34.6786 45.1925L34.0243 44.9892Z" fill="#8BDBFB"/>
<path d="M85.3637 30.9391L56.0393 46.9836L44.7873 46.3976L33.5176 45.8115L23.2699 45.2793L52.5909 29.2356L61.0377 29.6743L70.9815 30.1898L85.3637 30.9391Z" fill="#FF4669"/>
<path d="M23.2905 45.302L26.4165 55.9477L58.4302 59.0764L56.0898 47.0043L23.2905 45.302Z" fill="#FF4A6B"/>
<path d="M85.3912 30.9886L86.4843 42.1048L58.3814 59.1485L56.041 47.0764L85.3912 30.9886Z" fill="#FF2D54"/>
<path d="M47.445 58.0089L36.2658 56.9151L33.5381 45.8225L44.8315 46.4078L47.445 58.0089Z" fill="#86DAFD"/>
<path d="M76.0678 36.0892L77.6937 47.441L67.877 53.3962L65.9642 41.6245L76.0678 36.0892Z" fill="#64D1FF"/>
<path d="M70.9834 30.1814L44.7868 46.395L33.5162 45.8093L61.0389 29.6662L70.9834 30.1814Z" fill="#7CD9FF"/>
<path d="M36.1308 38.2395L66.1053 41.4757L76.19 35.9561L45.0296 33.3709L36.1308 38.2395Z" fill="#78D6FB"/>
<path d="M71.7927 24.7442C71.667 23.5621 71.4269 22.3702 70.9861 21.2694C69.7965 18.3001 66.9408 16.8745 64.6108 15.5805C63.4567 14.9397 62.2274 14.2823 61.0074 14.4429C59.7954 14.6019 58.8042 15.5486 58 16.5912C55.0112 20.4664 53.8274 25.8784 52.7339 31.0837C52.4597 32.3897 52.1919 33.8101 52.6481 35.1063C53.3551 37.1149 55.5711 37.9002 57.2443 37.3234C58.9175 36.7466 60.1647 35.199 61.3382 33.7064C63.9671 30.363 66.596 27.0196 69.2249 23.6762" fill="#7ED9FD"/>
<path d="M58.9045 36.535C62.1184 34.2075 65.3319 31.8797 68.5458 29.5522C69.5355 28.8357 70.5515 28.0895 71.2032 26.9493C71.855 25.8091 72.0552 24.1624 71.3628 22.9382C70.628 21.6392 69.1184 21.2337 67.9139 21.6098C66.7091 21.986 65.7437 22.9717 64.8402 23.9577C61.2619 27.862 57.8716 32.5085 57.1113 38.3708" fill="#45C8FD"/>
<path d="M34.1759 41.758C33.5386 40.8133 32.977 39.7715 32.616 38.6361C31.6425 35.5733 32.8157 32.299 33.6923 29.5338C34.1266 28.1643 34.6051 26.7233 35.5796 25.875C36.5478 25.0317 37.8422 24.9262 39.0615 25.0368C43.5929 25.4482 47.774 28.384 51.7631 31.2432C52.7639 31.9607 53.8305 32.7651 54.3007 34.0523C55.0293 36.047 53.9214 38.3584 52.365 39.267C50.8085 40.1756 48.9603 40.0536 47.1989 39.9127L35.3621 38.9667" fill="#7ED9FD"/>
<path d="M50.6986 40.0144C46.9589 40.8858 43.2195 41.7567 39.4798 42.6281C38.3283 42.8966 37.1398 43.1647 35.9701 42.8639C34.8005 42.5631 33.6428 41.5443 33.3863 40.1235C33.114 38.6157 33.9484 37.1353 35.0444 36.4541C36.1408 35.7728 37.4406 35.7158 38.696 35.7078C43.6678 35.6759 48.9614 36.3225 53.1157 39.912" fill="#45C8FD"/>
<path d="M59.1381 33.4845C58.7309 37.3953 50.2709 40.1153 47.9599 37.5271C47.9588 37.1125 47.9433 34.6056 47.9422 34.6016C47.9355 33.292 49.0022 31.8887 50.1884 31.8765C51.7067 31.8626 53.356 31.3751 54.6214 30.4345C55.5498 29.7428 57.2035 30.0396 57.8014 31.2367L59.1381 33.4845Z" fill="#64D1FF"/>
<path d="M58.5649 37.617C59.0281 37.0997 59.34 36.3839 59.4667 35.6256C59.5681 35.0191 59.5672 34.303 59.2833 33.7374L58.9628 33.1976C59.0613 33.3624 58.988 33.7476 58.9451 33.912C58.8751 34.182 58.7426 34.4206 58.5932 34.6316C57.9817 35.4928 57.0606 36.0325 56.2064 36.4705C55.7085 36.7259 55.2839 37.0949 54.7731 37.3284C54.2055 37.5879 53.5996 37.7393 52.9835 37.7684C51.9136 37.819 50.8651 38.1195 49.7732 38.0434C49.3798 38.0161 48.9705 37.9569 48.5955 37.7759C48.4169 37.6897 47.9873 37.4399 47.9684 37.1525C47.9707 37.1874 47.9715 37.595 47.9715 37.595C48.078 39.0566 49.8864 40.4313 51.6372 40.3125C55.4839 40.0519 58.2963 37.9168 58.5649 37.617Z" fill="#64D1FF"/>
</g>
</g>
<defs>
<clipPath id="clip0_1_555">
<rect width="106" height="107" fill="white"/>
</clipPath>
</defs>
</svg>
